<?xml version="1.0" encoding="UTF-8" standalone="no"?>
<!-- Created with Inkscape (http://www.inkscape.org/) -->

<svg
   xmlns:dc="http://purl.org/dc/elements/1.1/"
   xmlns:cc="http://creativecommons.org/ns#"
   xmlns:rdf="http://www.w3.org/1999/02/22-rdf-syntax-ns#"
   xmlns:svg="http://www.w3.org/2000/svg"
   xmlns="http://www.w3.org/2000/svg"
   xmlns:sodipodi="http://sodipodi.sourceforge.net/DTD/sodipodi-0.dtd"
   xmlns:inkscape="http://www.inkscape.org/namespaces/inkscape"
   width="100"
   height="60"
   viewBox="0 0 26.45833 15.874999"
   version="1.1"
   id="svg4902"
   inkscape:version="0.92.4 (5da689c313, 2019-01-14)"
   sodipodi:docname="congento-mouse.svg">
  <defs
     id="defs4896" />
  <sodipodi:namedview
     id="base"
     pagecolor="#000000"
     bordercolor="#666666"
     borderopacity="1.0"
     inkscape:pageopacity="0"
     inkscape:pageshadow="2"
     inkscape:zoom="2.8"
     inkscape:cx="43.684978"
     inkscape:cy="14.75957"
     inkscape:document-units="mm"
     inkscape:current-layer="layer1"
     showgrid="false"
     fit-margin-top="0"
     fit-margin-left="0"
     fit-margin-right="0"
     fit-margin-bottom="0"
     units="px"
     inkscape:window-width="930"
     inkscape:window-height="729"
     inkscape:window-x="317"
     inkscape:window-y="642"
     inkscape:window-maximized="0" />
  <metadata
     id="metadata4899">
    <rdf:RDF>
      <cc:Work
         rdf:about="">
        <dc:format>image/svg+xml</dc:format>
        <dc:type
           rdf:resource="http://purl.org/dc/dcmitype/StillImage" />
        <dc:title></dc:title>
      </cc:Work>
    </rdf:RDF>
  </metadata>
  <g
     inkscape:label="Layer 1"
     inkscape:groupmode="layer"
     id="layer1"
     transform="translate(-88.424141,-117.85838)">
    <g
       id="g5234"
       transform="translate(-7.3705338,10.866817)">
      <g
         id="g4515"
         transform="matrix(0.35277777,0,0,-0.35277777,96.900193,110.36814)">
        <path
           d="m 0,0 v 0 c 2.834,2.834 7.473,2.834 10.306,0 l 9.501,-9.501 c 2.835,-2.834 2.835,-7.472 0,-10.306 -2.834,-2.834 -7.472,-2.834 -10.306,0 L 0,-10.306 C -2.834,-7.472 -2.834,-2.834 0,0"
           style="fill:#ffffff;fill-opacity:1;fill-rule:nonzero;stroke:none"
           id="path4517"
           inkscape:connector-curvature="0" />
      </g>
      <g
         id="g4519"
         transform="matrix(0.35277777,0,0,-0.35277777,121.14749,110.36814)">
        <path
           d="m 0,0 v 0 c 2.834,-2.834 2.834,-7.472 0,-10.306 l -9.501,-9.501 c -2.834,-2.834 -7.472,-2.834 -10.306,0 -2.834,2.834 -2.834,7.472 0,10.306 L -10.306,0 C -7.472,2.834 -2.834,2.834 0,0"
           style="fill:#ffffff;fill-opacity:1;fill-rule:nonzero;stroke:none"
           id="path4521"
           inkscape:connector-curvature="0" />
      </g>
      <g
         id="g4523"
         transform="matrix(0.35277777,0,0,-0.35277777,105.70482,118.10551)">
        <path
           d="m 0,0 c -1.671,0 -3.025,-1.354 -3.025,-3.024 0,-1.671 1.354,-3.026 3.025,-3.026 1.67,0 3.024,1.355 3.024,3.026 C 3.024,-1.354 1.67,0 0,0"
           style="fill:#ffffff;fill-opacity:1;fill-rule:nonzero;stroke:none"
           id="path4525"
           inkscape:connector-curvature="0" />
      </g>
      <g
         id="g4527"
         transform="matrix(0.35277777,0,0,-0.35277777,112.34318,118.10551)">
        <path
           d="m 0,0 c -1.671,0 -3.025,-1.354 -3.025,-3.024 0,-1.671 1.354,-3.026 3.025,-3.026 1.671,0 3.025,1.355 3.025,3.026 C 3.025,-1.354 1.671,0 0,0"
           style="fill:#ffffff;fill-opacity:1;fill-rule:nonzero;stroke:none"
           id="path4529"
           inkscape:connector-curvature="0" />
      </g>
    </g>
  </g>
</svg>
